<svg id="SvgjsSvg1001" width="288" height="288" xmlns="http://www.w3.org/2000/svg" version="1.1"
	xmlns:xlink="http://www.w3.org/1999/xlink" xmlns:svgjs="http://svgjs.com/svgjs">
	<defs id="SvgjsDefs1002"></defs>
	<g id="SvgjsG1008" transform="matrix(0.916700005531311,0,0,0.916700005531311,11.995199203491211,11.995163917541504)">
		<svg xmlns="http://www.w3.org/2000/svg" enable-background="new 0 0 55 55" viewBox="0 0 55 55" width="288"
			height="288">
			<polygon fill="#b05205" points="48.745 21.094 48.706 34.953 34.823 43.02 34.862 29.161"
				class="colorefc348 svgShape"></polygon>
			<polygon fill="#f88425" points="34.862 29.161 34.823 43.02 20.847 34.951 20.886 21.092"
				class="colorddb040 svgShape"></polygon>
			<path fill="#faa056" d="M48.74366,21.0945587c-21.279356,12.3685799,9.9204903-5.7757206-13.8814964,8.0688591
							l-13.9780312-8.073431c0.1112118-0.0645847,13.2750015-7.7093534,13.8861237-8.0642586L48.74366,21.0945587z"
				class="colorffd651 svgShape"></path>
			<polygon fill="#b05205" points="42.991 24.437 40.615 25.821 26.637 17.752 29.017 16.369"
				class="colorefc348 svgShape"></polygon>
			<polygon fill="#f88425"
				points="42.953 24.471 42.96 27.157 42.346 27.157 41.791 27.832 41.149 27.848 40.623 28.507 40.615 25.821"
				class="colorddb040 svgShape"></polygon>
			<polygon fill="#6b3203" points="27.87 35.644 27.637 36.092 27.781 36.177 28.099 36.361"
				class="color383736 svgShape"></polygon>
			<polygon fill="#6b3203" points="27.781 36.177 27.778 37.064 27.952 37.165 27.955 36.278"
				class="color383736 svgShape"></polygon>
			<polygon fill="#6b3203" points="26.917 36.639 26.916 36.829 28.117 37.531 28.118 37.341"
				class="color383736 svgShape"></polygon>
			<path fill="#6b3203" d="M24.7210026,33.8574448l-0.00177,0.6320152
										c-0.0005589,0.1995888,0.1133995,0.4313774,0.2646847,0.5489235l-0.0015965,0.5696487
										c-0.1061096-0.0495071-0.1861115-0.0448837-0.1862774,0.0147133l0.4684029,0.2736855
										c0.0001659-0.059597-0.0795441-0.1575394-0.1855831-0.2319908l0.0015945-0.5696487
										c0.0691605,0.027916,0.12887,0.0211563,0.1755142-0.0085106c0.0550308-0.0414238,0.0910625-0.1189384,0.0913715-0.2298203
										l0.0017719-0.6320152L24.7210026,33.8574448z" class="color383736 svgShape"></path>
			<polygon fill="#6b3203" points="27.085 35.77 27.082 36.657 27.256 36.759 27.259 35.872"
				class="color383736 svgShape"></polygon>
			<polygon fill="#6b3203" points="27.172 35.237 26.941 35.686 27.085 35.77 27.402 35.954"
				class="color383736 svgShape"></polygon>
			<path fill="#6b3203"
				d="M25.9513359 36.5168152c-.0213356 0-.0443573-.0068169-.0668163-.019886l-1.629427-.9517937c-.0696239-.0409126-.1263351-.1426277-.1263351-.2255898l.0056152-1.8979034c0-.0477295.0185299-.085804.0505333-.1045532.0320053-.0181847.0718708-.0153427.1111736.0073853l1.6294289.9517937c.0718708.0426178.1302643.1443329.1291409.2272949l-.0050526 1.8978996c0 .0471649-.0190907.0846672-.0516567.1028519C25.983902 36.5128365 25.9681816 36.5168152 25.9513359 36.5168152zM24.2309475 33.3744812c-.0044918 0-.0084209.001133-.0117912.0028381-.0101051.0062523-.016283.0227318-.016283.044323l-.0056133 1.8979034c0 .0590973.0432339.1363754.0926437.1653557l1.6294289.9517937c.018528.0107956.0342503.0119324.0449181.0073853.010107-.0062485.016283-.0215912.0168457-.0426178l.0050526-1.8978996c0-.0579605-.0449181-.137516-.0954533-.1670609l-1.629427-.9517937C24.2500381 33.3778877 24.2393703 33.3744812 24.2309475 33.3744812zM28.3763885 37.9334259c-.0213375 0-.0443573-.0062523-.0662556-.0193214l-1.629427-.9517937c-.07131-.041481-.1268959-.1409225-.1268959-.2255898l.0056152-1.898468c0-.0471649.0179672-.0852356.0505333-.1039886.0325661-.0193214.0718689-.0164795.1111736.0068207l1.629427.9523582c.0718708.041481.1302643.1437645.1291428.2272949l-.0050545 1.8979034c0 .0460243-.0179672.0835304-.0499725.1022797C28.410078 37.9294472 28.393795 37.9334259 28.3763885 37.9334259zM26.6565609 34.7916565c-.0044918 0-.0089836.0011368-.012352.0028419-.010107.0062485-.016283.0221596-.016283.0437546l-.0056152 1.898468c0 .0590973.0437965.1363792.0932064.1653595l1.6288662.9517899c.0179672.010231.0348129.0119324.0454807.0068207.010107-.0062523.016283-.021595.016283-.0420494l.0050526-1.8979034c0-.0585289-.0449181-.1375122-.0954514-.1670609l-1.6294289-.9523621C26.6750908 34.7950668 26.6649837 34.7916565 26.6565609 34.7916565zM23.5262852 35.1005287c-.0213356 0-.0443573-.0062523-.0662556-.0193214l-1.629427-.9517937c-.07131-.041481-.1268959-.1409187-.1268959-.2255859l.0056152-1.8984718c0-.0471649.0179672-.0852356.0505333-.1039867.0325661-.0193214.0718689-.0164795.1111736.0068188l1.6294289.9523621c.0718689.041481.1302643.1437607.1291409.2272911l-.0050545 1.8979034c0 .0460281-.0179672.0835304-.0499706.1022835C23.5599747 35.09655 23.5436916 35.1005287 23.5262852 35.1005287zM21.8064575 31.9587593c-.0044918 0-.0089836.0011368-.012352.0028419-.010107.0062504-.016283.0221615-.016283.0437546l-.0056152 1.8984718c0 .0590935.0437965.1363754.0932064.1653557l1.6288662.9517937c.0179691.0102272.0348129.0119324.0454807.0068169.010107-.0062523.016283-.0215912.016283-.0420494l.0050545-1.8979034c0-.0585289-.04492-.1375122-.0954533-.1670609L21.836216 31.96842C21.8249874 31.9621696 21.8148804 31.9587593 21.8064575 31.9587593z"
				class="color383736 svgShape"></path>
			<path fill="#6b3203" d="M22.6288185,32.6237221l-0.000246,0.0882912
						c-0.3319836-0.1695251-0.5975494-0.0029602-0.5986347,0.3846359l0.5965805,0.348526l-0.0019741,0.7045822
						c-0.0003414,0.1219215,0.0861511,0.2735062,0.1917267,0.335186c0.1055775,0.061676,0.1926346,0.0114822,0.192976-0.1104393
						l-0.080267-0.0468903c-0.0001984,0.0706367-0.0509815,0.0999184-0.1124477,0.0640106s-0.1119194-0.1243362-0.111721-0.194973
						l0.0019741-0.7045822l0.5965786,0.3485222c0.0010853-0.3875961-0.2612324-0.8625526-0.5945244-1.0816841l0.000246-0.0882912
						L22.6288185,32.6237221z" class="color383736 svgShape"></path>
			<g fill="#000000" class="color000 svgShape">
				<polygon fill="#7f3b04" points="36.248 39.44 36.249 39.777 39.366 37.978 39.365 37.64"
					class="color434240 svgShape"></polygon>
				<polygon fill="#7f3b04" points="37.487 39.514 37.488 39.851 39.368 38.766 39.367 38.428"
					class="color434240 svgShape"></polygon>
				<path fill="#ffffff" d="M39.5136604,36.2923927c0.1119308-0.0646248,0.2014275-0.0136299,0.201786,0.1129837l0.0067978,2.3976212
					c0.0003662,0.1286278-0.0885506,0.2826309-0.2004814,0.3472519l-3.4735298,2.0054436
					c-0.1119499,0.0646362-0.2014351,0.0136337-0.2018013-0.114994l-0.0067978-2.3976212
					c-0.0003586-0.1266136,0.0885468-0.2806091,0.2004967-0.3452454L39.5136604,36.2923927z M36.2470512,38.9876099
					l3.1167412-1.7994537l-0.0009575-0.3376389l-3.1167412,1.7994537L36.2470512,38.9876099 M36.2492905,39.7774391
					l3.1167412-1.7994499l-0.0009575-0.3376389l-3.1167412,1.7994537L36.2492905,39.7774391 M37.4880676,39.8513412
					l1.8801994-1.0855331l-0.0009575-0.3376389l-1.8801994,1.0855331L37.4880676,39.8513412" class="colorfff svgShape">
				</path>
				<polygon fill="#7f3b04" points="36.246 38.65 36.247 38.988 39.364 37.188 39.363 36.851"
					class="color434240 svgShape"></polygon>
			</g>
			<g fill="#000000" class="color000 svgShape">
				<polygon fill="#b05205" points="34.153 29.573 34.114 43.432 20.231 51.5 20.271 37.641"
					class="colorefc348 svgShape"></polygon>
				<polygon fill="#f88425" points="20.271 37.641 20.231 51.5 6.255 43.431 6.294 29.572"
					class="colorddb040 svgShape"></polygon>
				<path fill="#faa056" d="M34.1516991,29.574482c-19.0232658,11.0576019-12.4621181,7.2438202-13.8814964,8.0688591
							L6.292172,29.569912c0.111671-0.0648537,13.9882259-8.1235561,13.8861256-8.0642605L34.1516991,29.574482z"
					class="colorffd651 svgShape"></path>
				<polygon fill="#b05205" points="28.399 32.917 26.023 34.3 12.045 26.232 14.425 24.849"
					class="colorefc348 svgShape"></polygon>
				<polygon fill="#f88425"
					points="28.361 32.951 28.368 35.637 27.754 35.637 27.2 36.312 26.557 36.328 26.031 36.986 26.023 34.3"
					class="colorddb040 svgShape"></polygon>
				<g fill="#000000" class="color000 svgShape">
					<polygon fill="#6b3203" points="13.278 44.124 13.045 44.572 13.189 44.657 13.507 44.841"
						class="color383736 svgShape"></polygon>
					<polygon fill="#6b3203" points="13.189 44.657 13.187 45.544 13.361 45.645 13.363 44.758"
						class="color383736 svgShape"></polygon>
					<polygon fill="#6b3203" points="12.325 45.119 12.324 45.309 13.525 46.011 13.526 45.821"
						class="color383736 svgShape"></polygon>
					<path fill="#6b3203" d="M10.1290417,42.3373718l-0.00177,0.6320152
										c-0.0005589,0.199585,0.1133995,0.4313736,0.2646847,0.5489197l-0.0015965,0.5696487
										c-0.1061096-0.0495071-0.1861115-0.0448837-0.1862783,0.0147133l0.4684038,0.2736855
										c0.0001669-0.059597-0.0795441-0.1575394-0.1855841-0.2319908l0.0015965-0.5696487
										c0.0691586,0.027916,0.12887,0.0211563,0.1755133-0.0085106c0.0550318-0.04142,0.0910616-0.1189384,0.0913725-0.2298164
										l0.00177-0.6320152L10.1290417,42.3373718z" class="color383736 svgShape"></path>
					<polygon fill="#6b3203" points="12.493 44.25 12.49 45.137 12.664 45.239 12.667 44.352"
						class="color383736 svgShape"></polygon>
					<polygon fill="#6b3203" points="12.58 43.717 12.349 44.166 12.493 44.25 12.81 44.434"
						class="color383736 svgShape"></polygon>
					<path fill="#6b3203"
						d="M11.359376 44.9967384c-.0213366 0-.0443573-.0068169-.0668173-.019886l-1.6294279-.9517937c-.0696239-.0409126-.1263332-.1426277-.1263332-.2255898l.0056143-1.8979034c0-.0477295.0185289-.0858002.0505333-.1045532.0320053-.0181847.0718708-.0153427.1111746.0073853l1.6294279.9517937c.0718699.0426178.1302643.1443329.1291409.2272949l-.0050526 1.8979034c0 .0471611-.0190907.0846672-.0516567.1028481C11.391942 44.9927635 11.3762207 44.9967384 11.359376 44.9967384zM9.6389875 41.8544044c-.0044918 0-.0084229.0011368-.0117912.0028419-.010107.0062485-.016283.022728-.016283.0443192L9.605298 43.799469c0 .0590973.0432348.1363754.0926447.1653557l1.6294289.9517937c.0185289.0107956.0342503.0119324.0449181.0073891.010107-.0062523.016283-.021595.0168447-.0426178l.0050535-1.8979034c0-.0579605-.044919-.1375122-.0954523-.1670609l-1.6294279-.9517937C9.6580782 41.8578148 9.6474094 41.8544044 9.6389875 41.8544044zM13.7844276 46.4133492c-.0213366 0-.0443573-.0062523-.0662556-.0193214l-1.6294279-.9517937c-.0713081-.041481-.1268959-.1409187-.1268959-.2255859l.0056152-1.8984718c0-.0471649.0179672-.0852356.0505333-.1039886.0325661-.0193176.0718699-.0164795.1111746.0068207l1.6294279.9523582c.0718699.041481.1302643.1437645.1291409.2272949l-.0050535 1.8979034c0 .0460281-.0179672.0835304-.0499716.1022835C13.8181162 46.4093704 13.8018332 46.4133492 13.7844276 46.4133492zM12.0646 43.2715797c-.0044918 0-.0089836.0011368-.012352.0028419-.010107.0062485-.016283.0221596-.016283.0437546l-.0056152 1.8984718c0 .0590935.0437956.1363754.0932064.1653557l1.6288662.9517899c.0179682.010231.034812.0119362.0454807.0068207.0101061-.0062523.016283-.0215912.016283-.0420494l.0050535-1.8979034c0-.0585289-.044919-.1375122-.0954523-.1670609l-1.6294279-.9523621C12.0831289 43.2749901 12.0730228 43.2715797 12.0646 43.2715797zM8.9343243 43.580452c-.0213366 0-.0443573-.0062523-.0662556-.0193214l-1.6294274-.9517899c-.0713086-.041481-.1268959-.1409225-.1268959-.2255898l.0056152-1.8984718c0-.0471649.0179672-.0852356.0505333-.1039848.0325661-.0193214.0718703-.0164795.1111741.0068169l1.6294279.9523621c.0718699.041481.1302643.1437607.1291418.2272911l-.0050535 1.8979034c0 .0460281-.0179672.0835304-.0499725.1022835C8.9680128 43.5764732 8.9517298 43.580452 8.9343243 43.580452zM7.2144971 40.4386826c-.0044918 0-.0089836.0011368-.0123525.0028419-.0101066.0062523-.016283.0221634-.016283.0437546l-.0056148 1.8984718c0 .0590973.0437956.1363754.0932064.1653557l1.6288667.9517937c.0179672.0102272.034812.0119324.0454798.0068169.010107-.0062485.016283-.0215912.016283-.0420494l.0050535-1.8979034c0-.0585251-.044919-.1375122-.0954523-.1670609L7.244256 40.4483452C7.233026 40.4420929 7.2229195 40.4386826 7.2144971 40.4386826z"
						class="color383736 svgShape"></path>
					<path fill="#6b3203" d="M8.0368576,41.1036491l-0.000247,0.0882874c-0.3319831-0.1695251-0.597548-0.0029602-0.5986338,0.3846397
						l0.5965796,0.3485222l-0.0019741,0.704586c-0.0003414,0.1219177,0.0861511,0.2735062,0.1917276,0.3351822
						c0.1055765,0.0616798,0.1926346,0.0114822,0.192976-0.1104393l-0.080267-0.0468903
						c-0.0001984,0.0706367-0.0509825,0.0999184-0.1124477,0.0640106c-0.0614662-0.0359077-0.1119194-0.1243362-0.111722-0.194973
						l0.0019741-0.7045822l0.5965796,0.3485222c0.0010862-0.3875961-0.2612314-0.8625526-0.5945253-1.0816841l0.000248-0.0882912
						L8.0368576,41.1036491z" class="color383736 svgShape"></path>
				</g>
				<g fill="#000000" class="color000 svgShape">
					<polygon fill="#7f3b04" points="21.656 47.92 21.657 48.257 24.774 46.458 24.773 46.12"
						class="color434240 svgShape"></polygon>
					<polygon fill="#7f3b04" points="22.895 47.994 22.896 48.331 24.776 47.246 24.775 46.908"
						class="color434240 svgShape"></polygon>
					<path fill="#ffffff" d="M24.9216976,44.772316c0.1119328-0.0646248,0.2014313-0.0136299,0.2017899,0.1129837l0.0067978,2.397625
					c0.0003643,0.128624-0.0885525,0.2826271-0.2004852,0.3472519l-3.4735279,2.0054398
					c-0.1119499,0.0646362-0.2014351,0.0136337-0.2018013-0.1149902l-0.0067959-2.397625
					c-0.0003605-0.1266136,0.0885448-0.2806091,0.2004948-0.3452454L24.9216976,44.772316z M21.6550884,47.4675331
					l3.1167431-1.7994499l-0.0009556-0.3376389l-3.116745,1.7994499L21.6550884,47.4675331 M21.6573277,48.2573662
					l3.1167431-1.7994537l-0.0009556-0.3376389l-3.116745,1.7994537L21.6573277,48.2573662 M22.8961067,48.3312645
					l1.8801975-1.0855331l-0.0009556-0.3376389l-1.8801994,1.0855331L22.8961067,48.3312645" class="colorfff svgShape">
					</path>
					<polygon fill="#7f3b04" points="21.654 47.13 21.655 47.468 24.772 45.668 24.771 45.33"
						class="color434240 svgShape"></polygon>
				</g>
			</g>
			<g fill="#000000" class="color000 svgShape">
				<polygon fill="#b05205" points="40.503 11.568 40.464 25.427 26.581 33.495 26.62 19.636"
					class="colorefc348 svgShape"></polygon>
				<polygon fill="#f88425" points="26.62 19.636 26.581 33.495 12.605 25.425 12.644 11.566"
					class="colorddb040 svgShape"></polygon>
				<path fill="#faa056" d="M40.5014877,11.5689936c-19.0232658,11.0575991-12.4621162,7.2438192-13.8814964,8.0688581
									l-13.9780293-8.0734301c0.1116705-0.0648518,13.9882259-8.1235552,13.8861237-8.0642586L40.5014877,11.5689936z"
					class="colorffd651 svgShape"></path>
				<polygon fill="#b05205" points="34.749 14.912 32.373 16.295 18.395 8.226 20.775 6.843"
					class="colorefc348 svgShape"></polygon>
				<polygon fill="#f88425"
					points="34.71 14.945 34.718 17.631 34.104 17.632 33.549 18.306 32.907 18.322 32.381 18.981 32.373 16.295"
					class="colorddb040 svgShape"></polygon>
				<g fill="#000000" class="color000 svgShape">
					<polygon fill="#6b3203" points="19.627 26.118 19.395 26.567 19.539 26.651 19.857 26.836"
						class="color383736 svgShape"></polygon>
					<polygon fill="#6b3203" points="19.539 26.651 19.536 27.538 19.71 27.64 19.713 26.753"
						class="color383736 svgShape"></polygon>
					<polygon fill="#6b3203" points="18.674 27.114 18.674 27.304 19.875 28.006 19.876 27.816"
						class="color383736 svgShape"></polygon>
					<path fill="#6b3203" d="M16.4788322,24.3318806l-0.00177,0.6320152
										c-0.0005589,0.199585,0.1133995,0.4313755,0.2646847,0.5489216l-0.0015965,0.5696487
										c-0.1061096-0.0495052-0.1861115-0.0448837-0.1862793,0.0147133l0.4684048,0.2736855
										c0.0001659-0.059597-0.0795441-0.1575394-0.185585-0.2319908l0.0015965-0.5696487
										c0.0691586,0.027916,0.12887,0.0211563,0.1755142-0.0085106c0.0550308-0.0414219,0.0910606-0.1189384,0.0913715-0.2298183
										l0.00177-0.6320152L16.4788322,24.3318806z" class="color383736 svgShape"></path>
					<polygon fill="#6b3203" points="18.843 26.244 18.84 27.131 19.014 27.233 19.017 26.346"
						class="color383736 svgShape"></polygon>
					<polygon fill="#6b3203" points="18.93 25.711 18.699 26.16 18.843 26.244 19.16 26.428"
						class="color383736 svgShape"></polygon>
					<path fill="#6b3203"
						d="M17.7091656 26.991251c-.0213356 0-.0443573-.0068188-.0668163-.0198879l-1.6294289-.9517937c-.069623-.0409126-.1263332-.1426258-.1263332-.2255898l.0056152-1.8979015c0-.0477314.0185289-.085804.0505333-.1045551.0320044-.0181847.0718708-.0153427.1111736.0073872l1.6294289.9517918c.0718689.0426178.1302643.144331.1291409.227293l-.0050526 1.8979034c0 .047163-.0190907.0846672-.0516567.10285C17.7417316 26.9872723 17.7260113 26.991251 17.7091656 26.991251zM15.9887772 23.8489132c-.0044918 0-.0084219.0011368-.0117912.0028419-.0101061.0062504-.016283.0227299-.016283.044323l-.0056143 1.8979015c0 .0590973.0432339.1363773.0926447.1653576l1.6294289.9517918c.018528.0107975.0342503.0119324.0449181.0073872.010107-.0062504.016283-.0215931.0168438-.0426178l.0050545-1.8979034c0-.0579586-.04492-.1375122-.0954533-.1670609l-1.629427-.9517918C16.0078678 23.8523235 15.9972 23.8489132 15.9887772 23.8489132zM20.1342182 28.4078579c-.0213375 0-.0443573-.0062504-.0662556-.0193195l-1.6294289-.9517918c-.0713081-.041481-.1268959-.1409225-.1268959-.2255898l.0056152-1.8984718c0-.047163.0179672-.0852337.0505333-.1039867.0325661-.0193195.0718708-.0164776.1111755.0068188l1.629427.9523621c.0718708.041481.1302643.1437626.1291409.227293l-.0050526 1.8979034c0 .0460262-.0179672.0835304-.0499725.1022816C20.1679058 28.4038811 20.1516228 28.4078579 20.1342182 28.4078579zM18.4143906 25.2660904c-.0044918 0-.0089836.0011368-.012352.0028419-.010107.0062504-.016283.0221615-.016283.0437527l-.0056152 1.8984718c0 .0590973.0437946.1363773.0932064.1653557l1.6288662.9517937c.0179672.0102272.034811.0119324.0454807.0068188.0101051-.0062504.016283-.0215931.016283-.0420494l.0050526-1.8979034c0-.058527-.0449181-.1375122-.0954514-.1670609l-1.6294289-.9523602C18.4329185 25.2695007 18.4228134 25.2660904 18.4143906 25.2660904zM15.2841139 25.5749626c-.0213356 0-.0443573-.0062504-.0662546-.0193195l-1.6294279-.9517937c-.0713091-.041481-.1268959-.1409206-.1268959-.2255878l.0056152-1.8984718c0-.047163.0179672-.0852356.0505333-.1039867.0325661-.0193195.0718699-.0164795.1111736.0068188l1.6294289.9523602c.0718699.041481.1302643.1437645.1291409.2272949l-.0050535 1.8979015c0 .0460281-.0179672.0835323-.0499716.1022835C15.3178034 25.5709858 15.3015203 25.5749626 15.2841139 25.5749626zM13.5642872 22.4331951c-.0044918 0-.0089836.0011368-.0123529.00284-.0101061.0062504-.016283.0221615-.016283.0437546l-.0056143 1.8984718c0 .0590954.0437956.1363754.0932064.1653557l1.6288662.9517918c.0179672.0102291.034812.0119343.0454807.0068188.0101061-.0062504.016283-.0215912.016283-.0420494l.0050535-1.8979015c0-.0585289-.044919-.1375141-.0954533-.1670609l-1.6294279-.9523621C13.5828161 22.4366035 13.57271 22.4331951 13.5642872 22.4331951z"
						class="color383736 svgShape"></path>
					<path fill="#6b3203" d="M14.3866482,23.0981579l-0.000247,0.0882912
						c-0.3319836-0.1695251-0.5975485-0.0029621-0.5986347,0.3846359l0.5965805,0.348526l-0.0019741,0.7045822
						c-0.0003414,0.1219215,0.0861511,0.2735062,0.1917267,0.3351841c0.1055765,0.0616779,0.1926346,0.0114822,0.192977-0.1104374
						l-0.0802679-0.0468922c-0.0001974,0.0706348-0.0509815,0.0999203-0.1124477,0.0640106
						c-0.0614653-0.0359077-0.1119194-0.1243362-0.111721-0.194973l0.0019741-0.7045822l0.5965786,0.3485241
						c0.0010862-0.387598-0.2612314-0.8625526-0.5945244-1.081686l0.000247-0.0882912L14.3866482,23.0981579z"
						class="color383736 svgShape"></path>
				</g>
				<g fill="#000000" class="color000 svgShape">
					<polygon fill="#7f3b04" points="28.006 29.914 28.007 30.252 31.124 28.452 31.123 28.115"
						class="color434240 svgShape"></polygon>
					<polygon fill="#7f3b04" points="29.245 29.988 29.246 30.326 31.126 29.24 31.125 28.903"
						class="color434240 svgShape"></polygon>
					<path fill="#ffffff" d="M31.2714882,26.7668247c0.1119328-0.0646229,0.2014294-0.013628,0.2017899,0.1129856l0.0067959,2.3976231
					c0.0003662,0.1286259-0.0885506,0.282629-0.2004833,0.3472519l-3.4735279,2.0054436
					c-0.1119518,0.0646343-0.201437,0.0136318-0.2018013-0.114994l-0.0067978-2.3976231
					c-0.0003586-0.1266136,0.0885448-0.2806091,0.2004967-0.3452435L31.2714882,26.7668247z M28.004879,29.4620457
					l3.1167431-1.7994537l-0.0009575-0.3376389l-3.1167431,1.7994537L28.004879,29.4620457 M28.0071182,30.2518749
					l3.1167431-1.7994518l-0.0009575-0.3376389l-3.1167431,1.7994518L28.0071182,30.2518749 M29.2458954,30.3257751
					l1.8801994-1.0855331l-0.0009575-0.3376389l-1.8801994,1.0855331L29.2458954,30.3257751" class="colorfff svgShape">
					</path>
					<polygon fill="#7f3b04" points="28.004 29.124 28.005 29.462 31.122 27.663 31.121 27.325"
						class="color434240 svgShape"></polygon>
				</g>
			</g>
		</svg></g>
</svg>